<?xml version="1.0" encoding="utf-8"?>
<!-- Generator: Adobe Illustrator 16.0.0, SVG Export Plug-In . SVG Version: 6.00 Build 0)  -->
<!DOCTYPE svg PUBLIC "-//W3C//DTD SVG 1.1//EN" "http://www.w3.org/Graphics/SVG/1.1/DTD/svg11.dtd">
<svg version="1.1" id="Capa_1" xmlns="http://www.w3.org/2000/svg" xmlns:xlink="http://www.w3.org/1999/xlink" x="0px" y="0px"
	 width="466.541px" height="498.865px" viewBox="0 0 466.541 498.865" enable-background="new 0 0 466.541 498.865"
	 xml:space="preserve">
<g>
	<g>
		<path id="SVGID_1_" fill="#EC6839" d="M297.917,457.603c37.614-41.605,60.47-71.535,90.244-121.121
			c34.826-57.994,59.645-116.488,72.43-174.075c12.237-55.084,4.276-103.133-27.894-132.716
			c-35.619-32.738-97.289-39.895-156.189-4.846c-10.954,6.526-21.766,13.234-32.279,19.933c-3.116,1.893-6.78,2.993-10.71,2.993
			c-3.98,0-7.687-1.12-10.831-3.075c-10.485-6.668-21.246-13.346-32.169-19.851c-58.892-35.05-120.571-27.892-156.19,4.845
			C2.159,59.272-5.842,107.321,6.384,162.405c12.797,57.587,37.574,116.08,72.39,174.076c29.775,49.586,52.631,79.515,90.256,121.12
			c7.451,8.235,18.466,19.434,26.793,25.847c8.205,6.322,17.489,10.873,26.834,12.979c2.565,0.662,5.202,1.039,7.858,1.201
			c0.093,0,0.174,0.011,0.256,0.021c0.916,0.041,1.821,0.051,2.748,0.051c0.916,0,1.832-0.01,2.737-0.051
			c0.082-0.011,0.164-0.021,0.255-0.021c2.668-0.162,5.295-0.539,7.858-1.201c9.346-2.105,18.629-6.656,26.834-12.979
			c8.327-6.413,19.353-17.61,26.805-25.847"/>
	</g>
	<g>
		<defs>
			<path id="SVGID_2_" d="M297.917,457.603c37.614-41.605,60.47-71.535,90.244-121.121c34.826-57.994,59.645-116.488,72.43-174.075
				c12.237-55.084,4.276-103.133-27.894-132.716c-35.619-32.738-97.289-39.895-156.189-4.846
				c-10.954,6.526-21.766,13.234-32.279,19.933c-3.116,1.893-6.78,2.993-10.71,2.993c-3.98,0-7.687-1.12-10.831-3.075
				c-10.485-6.668-21.246-13.346-32.169-19.851c-58.892-35.05-120.571-27.892-156.19,4.845
				C2.159,59.272-5.842,107.321,6.384,162.405c12.797,57.587,37.574,116.08,72.39,174.076
				c29.775,49.586,52.631,79.515,90.256,121.12c7.451,8.235,18.466,19.434,26.793,25.847c8.205,6.322,17.489,10.873,26.834,12.979
				c2.565,0.662,5.202,1.039,7.858,1.201c0.093,0,0.174,0.011,0.256,0.021c0.916,0.041,1.821,0.051,2.748,0.051
				c0.916,0,1.832-0.01,2.737-0.051c0.082-0.011,0.164-0.021,0.255-0.021c2.668-0.162,5.295-0.539,7.858-1.201
				c9.346-2.105,18.629-6.656,26.834-12.979c8.327-6.413,19.353-17.61,26.805-25.847"/>
		</defs>
		<clipPath id="SVGID_3_">
			<use xlink:href="#SVGID_2_"  overflow="visible"/>
		</clipPath>
	</g>
</g>
</svg>
